<svg xmlns="http://www.w3.org/2000/svg" version="1.1" xmlns:xlink="http://www.w3.org/1999/xlink" xmlns:svgjs="http://svgjs.dev/svgjs" width="100%" height="100%" viewBox="0 0 1000 600"><rect width="1000" height="600" x="0" y="0" fill="#0f172a"/><g><circle r="166.66666666666666" cx="493.01301066080725" cy="515.2353067534605" fill="#3c1a5b" transform="matrix(0.3830285672338546,0,0,0.38302856723385453,0,102.65016264396556)"/><path d="M579.4564483238582 584.0150314146144L579.4564483238582 590.2352693215325L526.3314499322374 590.2352693215325L526.3314499322374 584.0150314146144Q530.6171640882001 582.3186028945461 534.9028782441628 581.1281267401118Q539.1885924001256 579.9376505856778 543.6826398831141 578.8662220466872L543.6826398831141 578.8662220466872L543.6826398831141 482.4376535375268L544.5457350950788 457.37813048668943L542.8195446711495 457.37813048668943L535.7659734561275 480.29479645954547L491.83740335751 590.2352693215325L486.2421654316699 590.2352693215325L444.45645241103375 480.29479645954547L436.7481193110731 455.2352734087081L434.8135955601177 455.2352734087081L435.0516907910045 482.4376535375268L435.0516907910045 578.8662220466872Q439.09930971608037 579.7293172586519 443.1766905450171 581.0090791246685Q447.2540713739538 582.3186028945461 451.33145220289055 584.0150314146144L451.33145220289055 584.0150314146144L451.33145220289055 590.2352693215325L406.5397868923083 590.2352693215325L406.5397868923083 584.0150314146144Q410.61716772124504 582.3186028945461 414.99216758879027 580.9197934130859Q419.3969293601964 579.5209839316259 423.890976843185 578.6578887196612L423.890976843185 578.6578887196612L423.890976843185 451.81265446471014Q419.3969293601964 450.9495592527454 414.99216758879027 449.5507497712854Q410.61716772124504 448.15194028982535 406.33145356528235 446.45551176975675L406.33145356528235 446.45551176975675L406.33145356528235 440.23527386283877L450.26002366389986 440.23527386283877L487.55168920154733 538.1519375650416L494.8135937435952 560.2352702297937L495.05168897448203 560.2352702297937L502.3135935165299 537.7352709109898L540.885020920194 440.23527386283877L579.694543554745 440.23527386283877L579.694543554745 446.45551176975675Q575.8254960528343 448.15194028982535 571.7481152238976 449.5507497712854Q567.6707343949608 450.9495592527454 563.3850202389981 451.81265446471014L563.3850202389981 451.81265446471014L563.3850202389981 579.104317277574Q567.9088296258476 579.9376505856778 571.867162839341 581.1281267401118Q575.8254960528343 582.3186028945461 579.4564483238582 584.0150314146144L579.4564483238582 584.0150314146144Z " fill="#0f172a" transform="matrix(0.3830285672338546,0,0,0.38302856723385453,0,102.65016264396556)"/><path d="M868.7406516876267 552.7352722347762L868.7406516876267 557.2525627051359L830.1599651345537 557.2525627051359L830.1599651345537 552.7352722347762Q833.2723566548016 551.503283924678 836.3847481750495 550.6387307246091Q839.4971396952974 549.7741775245404 842.7608280255574 548.9960796444784L842.7608280255574 548.9960796444784L842.7608280255574 478.96727043890047L843.3876290956073 460.7684255774509L842.1340269555076 460.7684255774509L837.0115492450994 477.4110746787765L805.1095361625585 557.2525627051359L801.0461361222348 557.2525627051359L770.7003187998178 477.4110746787765L765.1023368293718 459.21222981732694L763.69743787926 459.21222981732694L763.8703485192736 478.96727043890047L763.8703485192736 548.9960796444784Q766.8098293995079 549.6228807145283 769.7709241097436 550.5522754046024Q772.7320188199795 551.503283924678 775.6931135302154 552.7352722347762L775.6931135302154 552.7352722347762L775.6931135302154 557.2525627051359L743.1642993776245 557.2525627051359L743.1642993776245 552.7352722347762Q746.1253940878603 551.503283924678 749.3026270981134 550.4874339145972Q752.5014739383681 549.4715839045161 755.765162268628 548.8447828344663L755.765162268628 548.8447828344663L755.765162268628 456.726639367129Q752.5014739383681 456.09983829707903 749.3026270981134 455.08398828699814Q746.1253940878603 454.06813827691724 743.0130025676124 452.8361499668191L743.0130025676124 452.8361499668191L743.0130025676124 448.3188594964593L774.9150156501535 448.3188594964593L801.9971446423106 519.4283602021233L807.2709191627306 535.4658220634007L807.4438298027444 535.4658220634007L812.7176043231644 519.1257665820991L840.7291280053955 448.3188594964593L868.9135623276404 448.3188594964593L868.9135623276404 452.8361499668191Q866.1037644274168 454.06813827691724 863.1426697171808 455.08398828699814Q860.181575006945 456.09983829707903 857.069183486697 456.726639367129L857.069183486697 456.726639367129L857.069183486697 549.1689902844921Q860.3544856469587 549.7741775245404 863.2291250371877 550.6387307246091Q866.1037644274168 551.503283924678 868.7406516876267 552.7352722347762L868.7406516876267 552.7352722347762ZM937.2132651330805 536.8707210135126L937.2132651330805 536.8707210135126Q937.2132651330805 540.2857061537845 937.3861757730945 542.7712966039826Q937.5374725831064 545.2785008841822 937.6887693931185 548.0666849544043L937.6887693931185 548.0666849544043L948.430842903974 549.6228807145283L948.430842903974 552.8865690447882Q944.5403535036642 554.91826906495 939.7853109032856 556.4744648250739Q935.0518821329085 558.0306605851979 930.6858884725607 558.8087584652599L930.6858884725607 558.8087584652599L926.7953990722508 558.8087584652599Q925.2392033121268 555.2208626849741 924.9366096921028 550.9413243446334Q924.612402242077 546.6617860042925 924.4611054320649 541.5393082938845L924.4611054320649 541.5393082938845L923.6830075520029 541.5393082938845Q923.056206481953 544.6516998141324 921.2622585918102 547.8289328243854Q919.489924531669 551.0277796646401 916.5936713114384 553.5133701148382Q913.7190319212093 555.9989605650361 909.8285425208994 557.55515632516Q905.9380531205895 559.111352085284 900.9668722201936 559.111352085284L900.9668722201936 559.111352085284Q891.4784008494378 559.111352085284 885.4697561089592 553.362073304826Q879.4827251984823 547.6127945243682 879.4827251984823 538.2756199636244L879.4827251984823 538.2756199636244Q879.4827251984823 531.0998284030529 882.3573645887113 526.5176964426879Q885.253617808942 521.9355644823229 890.8515997793879 519.2770633921111Q896.4495817498337 516.6401761319012 904.7060648104914 515.4730293118082Q912.9409340411473 514.3058824917152 923.834304362015 513.6790814216654L923.834304362015 513.6790814216654Q924.4611054320649 506.9787941211316 924.223353302046 501.6185642807047Q923.9856011720269 496.25833444027774 922.5158607319099 492.432686529973Q921.0461202917929 488.62865244967 918.1498670715623 486.532110939503Q915.2752276813333 484.4139555993343 910.6066404009614 484.4139555993343L910.6066404009614 484.4139555993343Q908.4236435707876 484.4139555993343 905.7003009905707 484.65170772935323Q902.9769584103537 484.8894598593722 900.3400711501436 485.97015135945827L900.3400711501436 485.97015135945827L893.0345966095617 504.6445004809457L888.9711965692381 504.6445004809457Q887.4150008091142 499.9759132005738 886.2478539890212 495.00473230017786Q885.0807071689283 490.0335513997819 884.7781135489042 485.1920534793963L884.7781135489042 485.1920534793963Q890.7003029693758 481.6257715291122 897.9193221899509 479.5940715089504Q905.1599552405276 477.58398531879027 914.0432393712351 477.58398531879027L914.0432393712351 477.58398531879027Q921.975514981867 477.58398531879027 926.7089437522438 479.83182363896935Q931.4639863526227 482.0796619591484 933.9495768028207 485.66755773943413Q936.4351672530186 489.25545351971994 937.2132651330805 493.599833350066Q937.9913630131425 497.9658270104137 937.9913630131425 502.31020684075975L937.9913630131425 502.31020684075975Q937.9913630131425 511.6473814015035 937.6023140731115 520.2929134021921Q937.2132651330805 528.9384454028807 937.2132651330805 536.8707210135126ZM907.1916552606895 549.4715839045161L907.1916552606895 549.4715839045161Q911.0821446609993 549.4715839045161 914.0432393712351 547.9153881443922Q916.9827202514693 546.3591923842682 919.014420271631 544.1761955540944Q921.0461202917929 541.9931987239206 922.2781086018911 539.7453604037414Q923.5317107419908 537.4975220835624 923.9856011720269 535.9413263234385L923.9856011720269 535.9413263234385L923.9856011720269 519.601270842137Q914.9726340613092 519.601270842137 909.2017414508496 520.5306655322111Q903.4524626703915 521.460060222285 900.1887743401317 523.4917602424468Q896.9250860098716 525.501846432607 895.6714838697717 528.5493964628497Q894.417881729672 531.5753326630908 894.417881729672 535.4658220634007L894.417881729672 535.4658220634007Q894.417881729672 542.1661093639343 897.8544806999457 545.8188466342253Q901.2694658402177 549.4715839045161 907.1916552606895 549.4715839045161ZM954.331418494444 487.2237534995581L954.331418494444 483.1819672892362Q960.2536079149158 479.44277469893836 966.7809845754357 477.8865789388144L966.7809845754357 477.8865789388144L966.7809845754357 464.6589149777608Q968.8126845955976 462.9514224076248 971.5360271758145 461.6329787775198Q974.2593697560314 460.29292131741306 976.8962570162414 459.06093300731493L976.8962570162414 459.06093300731493L980.7867464165513 459.06093300731493L980.7867464165513 479.44277469893836L1004.1296828184106 479.44277469893836L1004.1296828184106 487.2237534995581L980.7867464165513 487.2237534995581L980.7867464165513 532.3534305431527Q980.7867464165513 541.6906051038964 983.7478411267871 545.5810945042062Q986.7089358370231 549.4715839045161 992.6311252574947 549.4715839045161L992.6311252574947 549.4715839045161Q995.4193093277167 549.4715839045161 999.6340061780525 549.0825349644851Q1003.8270891983866 548.6934860244542 1006.7881839086224 547.6127945243682L1006.7881839086224 547.6127945243682L1007.8688754087084 549.9470881645541Q1006.6368870986103 551.3303732846643 1004.3674349484295 552.8865690447882Q1002.1195966282505 554.4427648049121 999.2449572380215 555.8476637550241Q996.3487040177909 557.2525627051359 992.9337188775189 558.18195739521Q989.5187337372467 559.111352085284 985.9308379569611 559.111352085284L985.9308379569611 559.111352085284Q976.5936633962174 559.111352085284 971.6873239858264 553.837577564864Q966.7809845754357 548.5421892144423 966.7809845754357 536.7194242035005L966.7809845754357 536.7194242035005L966.7809845754357 487.2237534995581L954.331418494444 487.2237534995581ZM1050.6642588121172 553.362073304826L1050.6642588121172 557.2525627051359L1016.1253584693661 557.2525627051359L1016.1253584693661 553.362073304826Q1018.459652109552 552.1084711647263 1020.9452425597499 551.2655317946591Q1023.430833009948 550.4009785945902 1026.3919277201837 549.6228807145283L1026.3919277201837 549.6228807145283L1026.3919277201837 488.47735563965796L1016.1253584693661 487.2237534995581L1016.1253584693661 483.1819672892362Q1020.6426489397259 481.3015640790864 1025.916423460146 479.9182789589762Q1031.2118118105677 478.5133800088643 1036.5072001609894 477.58398531879027L1036.5072001609894 477.58398531879027L1040.3976895612993 477.58398531879027L1040.3976895612993 549.6228807145283Q1043.5100810815472 550.4009785945902 1045.9956715317453 551.2655317946591Q1048.4812619819431 552.1084711647263 1050.6642588121172 553.362073304826L1050.6642588121172 553.362073304826ZM1023.430833009948 452.9874467768311L1023.430833009948 452.9874467768311Q1023.430833009948 448.7943637564972 1026.1541755901649 446.28715947629746Q1028.8775181703818 443.8015690260995 1033.3948086407415 443.8015690260995L1033.3948086407415 443.8015690260995Q1037.9120991111015 443.8015690260995 1040.5489863713115 446.28715947629746Q1043.2074874615232 448.7943637564972 1043.2074874615232 452.9874467768311L1043.2074874615232 452.9874467768311Q1043.2074874615232 457.18052979716515 1040.5489863713115 459.60127875735793Q1037.9120991111015 462.02202771755077 1033.3948086407415 462.02202771755077L1033.3948086407415 462.02202771755077Q1028.8775181703818 462.02202771755077 1026.1541755901649 459.60127875735793Q1023.430833009948 457.18052979716515 1023.430833009948 452.9874467768311ZM1120.390474397671 536.8707210135126L1120.390474397671 536.8707210135126Q1120.390474397671 540.2857061537845 1120.5417712076828 542.7712966039826Q1120.693068017695 545.2785008841822 1120.844364827707 548.0666849544043L1120.844364827707 548.0666849544043L1131.5864383385626 549.6228807145283L1131.5864383385626 552.8865690447882Q1127.6959489382527 554.91826906495 1122.9625201678757 556.4744648250739Q1118.207477567497 558.0306605851979 1113.8414839071493 558.8087584652599L1113.8414839071493 558.8087584652599L1109.9509945068394 558.8087584652599Q1108.3947987467154 555.2208626849741 1108.0922051266914 550.9413243446334Q1107.7896115066671 546.6617860042925 1107.6167008666534 541.5393082938845L1107.6167008666534 541.5393082938845L1106.8386029865915 541.5393082938845Q1106.2334157465432 544.6516998141324 1104.4394678564004 547.8289328243854Q1102.6455199662576 551.0277796646401 1099.7708805760285 553.5133701148382Q1096.8962411857995 555.9989605650361 1093.0057517854898 557.55515632516Q1089.1152623851797 559.111352085284 1084.122467654782 559.111352085284L1084.122467654782 559.111352085284Q1074.6339962840264 559.111352085284 1068.6469653735494 553.362073304826Q1062.6599344630727 547.6127945243682 1062.6599344630727 538.2756199636244L1062.6599344630727 538.2756199636244Q1062.6599344630727 531.0998284030529 1065.5345738533015 526.5176964426879Q1068.4092132435305 521.9355644823229 1074.0071952139763 519.2770633921111Q1079.6051771844222 516.6401761319012 1087.86166024508 515.4730293118082Q1096.1181433057375 514.3058824917152 1107.0115136266052 513.6790814216654L1107.0115136266052 513.6790814216654Q1107.6167008666534 506.9787941211316 1107.4005625666362 501.6185642807047Q1107.1628104366173 496.25833444027774 1105.6714561664985 492.432686529973Q1104.2017157263815 488.62865244967 1101.3270763361525 486.532110939503Q1098.4524369459234 484.4139555993343 1093.7838496655515 484.4139555993343L1093.7838496655515 484.4139555993343Q1091.6008528353777 484.4139555993343 1088.8775102551608 484.65170772935323Q1086.154167674944 484.8894598593722 1083.4956665847321 485.97015135945827L1083.4956665847321 485.97015135945827L1076.1901920441503 504.6445004809457L1072.1484058338283 504.6445004809457Q1070.5922100737043 499.9759132005738 1069.4250632536114 495.00473230017786Q1068.2579164335184 490.0335513997819 1067.9337089834926 485.1920534793963L1067.9337089834926 485.1920534793963Q1073.8558984039644 481.6257715291122 1081.096531454541 479.5940715089504Q1088.337164505118 477.58398531879027 1097.1988348058237 477.58398531879027L1097.1988348058237 477.58398531879027Q1105.1311104164554 477.58398531879027 1109.8861530168342 479.83182363896935Q1114.6195817872112 482.0796619591484 1117.1267860674109 485.66755773943413Q1119.612376517609 489.25545351971994 1120.390474397671 493.599833350066Q1121.168572277733 497.9658270104137 1121.168572277733 502.31020684075975L1121.168572277733 502.31020684075975Q1121.168572277733 511.6473814015035 1120.779523337702 520.2929134021921Q1120.390474397671 528.9384454028807 1120.390474397671 536.8707210135126ZM1090.3472506952778 549.4715839045161L1090.3472506952778 549.4715839045161Q1094.2377400955877 549.4715839045161 1097.1988348058237 547.9153881443922Q1100.1599295160595 546.3591923842682 1102.1700157062196 544.1761955540944Q1104.2017157263815 541.9931987239206 1105.4553178664812 539.7453604037414Q1106.6873061765793 537.4975220835624 1107.1628104366173 535.9413263234385L1107.1628104366173 535.9413263234385L1107.1628104366173 519.601270842137Q1098.1282294958976 519.601270842137 1092.3789507154397 520.5306655322111Q1086.60805810498 521.460060222285 1083.3443697747202 523.4917602424468Q1080.0806814444602 525.501846432607 1078.8270793043603 528.5493964628497Q1077.5950909942621 531.5753326630908 1077.5950909942621 535.4658220634007L1077.5950909942621 535.4658220634007Q1077.5950909942621 542.1661093639343 1081.0100761345343 545.8188466342253Q1084.446675104808 549.4715839045161 1090.3472506952778 549.4715839045161ZM1181.0821090425052 539.5076082737226L1181.0821090425052 539.5076082737226Q1181.0821090425052 535.1632284433765 1178.358766462288 532.1156784131338Q1175.6354238820713 529.0897422128928 1171.4207270317356 526.4312411226811Q1167.2276440114015 523.794353862471 1162.4726014110229 521.308763412273Q1157.7391726406458 518.823172962075 1153.5244757903101 515.4730293118082Q1149.331392769976 512.1228856615414 1146.608050189759 507.7568920011936Q1143.8847076095421 503.41251217084755 1143.8847076095421 497.0364323203397L1143.8847076095421 497.0364323203397Q1143.8847076095421 492.821735470004 1145.829952309697 489.25545351971994Q1147.7751970098523 485.66755773943413 1151.038885340112 483.0955119692293Q1154.3025736703719 480.5234661990244 1158.6685673307197 479.0537257589074Q1163.0345609910676 477.58398531879027 1168.0057418914635 477.58398531879027L1168.0057418914635 477.58398531879027Q1176.413521762133 477.58398531879027 1181.7737516025602 478.5133800088643Q1187.1555952729889 479.44277469893836 1192.1267761733848 481.15026726907433L1192.1267761733848 481.15026726907433Q1191.499975103335 486.143061999472 1190.6570357332675 491.2006982198749Q1189.7924825331988 496.25833444027774 1188.2362867730749 501.53210896069777L1188.2362867730749 501.53210896069777L1184.345797372765 501.53210896069777L1178.4236079522932 485.66755773943413Q1176.5648185721452 484.8894598593722 1174.2305249319593 484.65170772935323Q1171.8962312917733 484.4139555993343 1169.4106408415753 484.4139555993343L1169.4106408415753 484.4139555993343Q1166.6008429413516 484.4139555993343 1164.5043014311846 485.4298056094152Q1162.4077599210177 486.4456556194961 1160.9164056508987 488.00185137962006Q1159.4466652107817 489.558047139744 1158.6685673307197 491.58974715990587Q1157.8904694506577 493.599833350066 1157.8904694506577 495.63153337022777L1157.8904694506577 495.63153337022777Q1157.8904694506577 499.8246163905618 1160.6138120308747 502.8721664208045Q1163.3371546110916 505.89810262104555 1167.5302376314255 508.4701483912504Q1171.7449344817612 511.04219416145526 1176.4783632521383 513.5277846116533Q1181.233405852517 516.0133750618512 1185.426488872851 519.1257665820991Q1189.6411857231867 522.238158102347 1192.3645283034036 526.3663996326759Q1195.0878708836206 530.4946411630046 1195.0878708836206 536.2439199434625L1195.0878708836206 536.2439199434625Q1195.0878708836206 541.5393082938845 1192.8184187334398 545.7323913142184Q1190.5705804132608 549.9470881645541 1186.593635692944 552.8865690447882Q1182.638304802629 555.8476637550241 1177.4293717722142 557.4903148351549Q1172.1988249117974 559.111352085284 1166.2982493213274 559.111352085284L1166.2982493213274 559.111352085284Q1159.5979620207938 559.111352085284 1153.9999800503479 557.944205265191Q1148.4019980799021 556.7770584450981 1142.3285118494184 554.615675444926L1142.3285118494184 554.615675444926Q1142.6311054694424 548.9960796444784 1143.7334107995302 543.7871466140634Q1144.8141022996163 538.5782135836484 1146.5215948697523 533.7583294932647L1146.5215948697523 533.7583294932647L1150.4120842700622 533.7583294932647L1157.263668380608 550.7251860446161Q1158.971160950744 551.9571743547142 1161.3919099109366 552.1084711647263Q1163.8126588711295 552.28138180474 1165.8227450612897 552.28138180474L1165.8227450612897 552.28138180474Q1172.6743291718353 552.28138180474 1176.8674121921695 548.5421892144423Q1181.0821090425052 544.8029966241443 1181.0821090425052 539.5076082737226ZM1287.6815186109957 552.7352722347762L1287.6815186109957 557.2525627051359L1247.847229917823 557.2525627051359L1247.847229917823 552.7352722347762Q1253.8991023183048 549.9470881645541 1260.2967959988146 548.9960796444784L1260.2967959988146 548.9960796444784L1260.2967959988146 456.726639367129Q1257.1844044785666 456.09983829707903 1254.0720129583187 455.08398828699814Q1250.9596214380708 454.06813827691724 1247.847229917823 452.8361499668191L1247.847229917823 452.8361499668191L1247.847229917823 448.3188594964593L1287.6815186109957 448.3188594964593L1287.6815186109957 452.8361499668191Q1284.871720710772 454.06813827691724 1281.608032380512 455.08398828699814Q1278.3443440502522 456.09983829707903 1275.2319525300043 456.726639367129L1275.2319525300043 456.726639367129L1275.2319525300043 548.9960796444784Q1278.495640860264 549.6228807145283 1281.759329190524 550.5522754046024Q1285.023017520784 551.503283924678 1287.6815186109957 552.7352722347762L1287.6815186109957 552.7352722347762ZM1384.943753618743 553.362073304826L1384.943753618743 557.2525627051359L1351.4855447760779 557.2525627051359L1351.4855447760779 553.362073304826Q1355.678627796412 551.1790764746522 1360.6714225268097 549.6228807145283L1360.6714225268097 549.6228807145283L1360.6714225268097 512.7496867315913Q1360.6714225268097 500.92692172064955 1357.2348235565357 494.0753376101039Q1353.8198384162638 487.2237534995581 1344.785257475544 487.2237534995581L1344.785257475544 487.2237534995581Q1340.8947680752342 487.2237534995581 1337.5446244249674 488.62865244967Q1334.2160946047022 490.0335513997819 1331.6440488344974 492.432686529973Q1329.0720030642926 494.85343549016585 1327.2132136841444 497.87937169040686Q1325.3328104739946 500.92692172064955 1324.2521189739086 504.1906100509095L1324.2521189739086 504.1906100509095L1324.2521189739086 549.6228807145283Q1329.0720030642926 550.5522754046024 1333.5892935346524 553.362073304826L1333.5892935346524 553.362073304826L1333.5892935346524 557.2525627051359L1299.9797878819752 557.2525627051359L1299.9797878819752 553.362073304826Q1303.870277282285 551.3303732846643 1310.246357132793 549.6228807145283L1310.246357132793 549.6228807145283L1310.246357132793 488.47735563965796L1299.9797878819752 487.2237534995581L1299.9797878819752 483.1819672892362Q1304.0215740922972 481.47447471910016 1309.3169624427192 480.0695757689883Q1314.590736963139 478.6646768188764 1320.3616295735987 477.58398531879027L1320.3616295735987 477.58398531879027L1324.2521189739086 477.58398531879027L1324.2521189739086 495.00473230017786L1324.4034157839205 495.00473230017786Q1327.6671041141806 487.85055456960805 1333.8270456646712 482.7064630291983Q1339.96537338516 477.58398531879027 1348.675746875854 477.58398531879027L1348.675746875854 477.58398531879027Q1354.9005299163498 477.58398531879027 1359.8068693267405 479.0537257589074Q1364.7132087371315 480.5234661990244 1367.9768970673913 484.26265878932224Q1371.2405853976516 488.00185137962006 1372.9480779677874 494.3130897401228Q1374.677184367925 500.6027142706238 1374.677184367925 510.2640962813933L1374.677184367925 510.2640962813933L1374.677184367925 549.6228807145283Q1380.9019674084211 550.7251860446161 1384.943753618743 553.362073304826L1384.943753618743 553.362073304826ZM1446.2621893336268 541.8419019139085L1445.6353882635772 541.8419019139085Q1444.857290383515 545.2785008841822 1442.9768871733652 548.3908924044301Q1441.1180977932172 551.503283924678 1438.3947552130003 553.9024190548691Q1435.6714126327834 556.3231680150619 1432.1699721725045 557.7280669651739Q1428.6685317122256 559.111352085284 1424.6267455019035 559.111352085284L1424.6267455019035 559.111352085284Q1409.2160847106761 559.111352085284 1401.5864027200685 549.3202870945042Q1393.9567207294608 539.5076082737226 1393.9567207294608 518.823172962075L1393.9567207294608 518.823172962075Q1393.9567207294608 498.89522170048775 1403.6829442302355 488.47735563965796Q1413.4091677310103 478.0378757488264 1429.9221338523253 478.0378757488264L1429.9221338523253 478.0378757488264Q1435.6714126327834 478.0378757488264 1438.9351009630432 478.5782214988695Q1442.1987892933032 479.1401810789142 1446.089278693613 480.5234661990244L1446.089278693613 480.5234661990244L1446.089278693613 451.1286573966831L1434.2665136826715 449.87505525658327L1434.2665136826715 445.8332690462613Q1438.7838041530313 443.9528658361115 1444.770835063508 442.5695807160014Q1450.7578659739852 441.16468176588944 1456.2045511344188 440.23528707581545L1456.2045511344188 440.23528707581545L1460.0950405347287 440.23528707581545L1460.0950405347287 548.3908924044301L1470.383223615548 549.6228807145283L1470.383223615548 552.8865690447882Q1465.8659331451881 555.0695658749621 1461.0460490548044 556.6257616350861Q1456.2045511344188 558.18195739521 1451.535963854047 558.8087584652599L1451.535963854047 558.8087584652599L1447.6454744537373 558.8087584652599L1446.2621893336268 541.8419019139085ZM1427.7391370221517 549.4715839045161L1427.7391370221517 549.4715839045161Q1435.3688190127593 549.4715839045161 1439.8644956531173 544.6516998141324Q1444.381786123477 539.8318157237484 1446.089278693613 531.5753326630908L1446.089278693613 531.5753326630908L1446.089278693613 487.699257759596Q1443.4523914334031 486.143061999472 1439.8644956531173 485.5162609294221Q1436.2982137028334 484.8894598593722 1430.7002317323875 484.8894598593722L1430.7002317323875 484.8894598593722Q1420.1094550315438 484.8894598593722 1414.511473061098 494.14017910010904Q1408.913491090652 503.41251217084755 1408.913491090652 518.823172962075L1408.913491090652 518.823172962075Q1408.913491090652 525.1992528125829 1409.994182590738 530.7107794630219Q1411.0748740908243 536.2439199434625 1413.4091677310103 540.4370029637967Q1415.7434613711962 544.6516998141324 1419.2449018314749 547.0508349443235Q1422.7463422917538 549.4715839045161 1427.7391370221517 549.4715839045161ZM1532.6310540205063 491.114242899868L1511.925004878857 491.114242899868Q1510.2175123087209 492.043637589942 1507.6454665385163 494.918276980171Q1505.0734207683113 497.8145302004017 1503.0633345781512 503.41251217084755L1503.0633345781512 503.41251217084755L1503.0633345781512 549.6228807145283Q1506.175726098399 549.9470881645541 1509.288117618647 550.7900275346212Q1512.400509138895 551.6545807346901 1515.5129006591428 553.362073304826L1515.5129006591428 553.362073304826L1515.5129006591428 557.2525627051359L1478.769389656216 557.2525627051359L1478.769389656216 553.362073304826Q1481.57918755644 551.8058775447021 1484.0647780066379 551.0277796646401Q1486.550368456836 550.2496817845781 1489.0575727370356 549.6228807145283L1489.0575727370356 549.6228807145283L1489.0575727370356 488.47735563965796L1478.769389656216 487.2237534995581L1478.769389656216 483.1819672892362Q1483.7621843866136 480.9989704590623 1489.0575727370356 479.6805268289573Q1494.3313472574555 478.36208319885225 1499.1728451778413 477.58398531879027L1499.1728451778413 477.58398531879027L1503.0633345781512 477.58398531879027L1503.0633345781512 494.0753376101039L1503.6685218181995 494.0753376101039Q1505.0734207683113 490.96294608985596 1507.6454665385163 487.85055456960805Q1510.2175123087209 484.73816304936014 1513.5676559589879 482.25257259916214Q1516.8961857792528 479.74536831896245 1520.87313049957 478.4269246888574Q1524.8500752198865 477.10848105875243 1529.0431582402207 477.58398531879027L1529.0431582402207 477.58398531879027Q1530.1238497403065 479.5940715089504 1530.9884029403754 482.0148204691432Q1531.8529561404443 484.4139555993343 1532.6310540205063 487.0724566895461L1532.6310540205063 487.0724566895461L1532.6310540205063 491.114242899868ZM1597.5157716856745 536.8707210135126L1597.5157716856745 536.8707210135126Q1597.5157716856745 540.2857061537845 1597.6670684956866 542.7712966039826Q1597.8183653056985 545.2785008841822 1597.9912759457125 548.0666849544043L1597.9912759457125 548.0666849544043L1608.7117356265662 549.6228807145283L1608.7117356265662 552.8865690447882Q1604.8212462262563 554.91826906495 1600.0878174558793 556.4744648250739Q1595.3327748555007 558.0306605851979 1590.9883950251544 558.8087584652599L1590.9883950251544 558.8087584652599L1587.0979056248448 558.8087584652599Q1585.5417098647206 555.2208626849741 1585.2175024146948 550.9413243446334Q1584.9149087946707 546.6617860042925 1584.7636119846588 541.5393082938845L1584.7636119846588 541.5393082938845L1583.9855141045966 541.5393082938845Q1583.3587130345468 544.6516998141324 1581.564765144404 547.8289328243854Q1579.7708172542611 551.0277796646401 1576.896177864032 553.5133701148382Q1574.021538473803 555.9989605650361 1570.1310490734932 557.55515632516Q1566.2405596731833 559.111352085284 1561.2477649427856 559.111352085284L1561.2477649427856 559.111352085284Q1551.7592935720297 559.111352085284 1545.772262661553 553.362073304826Q1539.785231751076 547.6127945243682 1539.785231751076 538.2756199636244L1539.785231751076 538.2756199636244Q1539.785231751076 531.0998284030529 1542.6598711413053 526.5176964426879Q1545.5345105315341 521.9355644823229 1551.1324925019799 519.2770633921111Q1556.7520883024276 516.6401761319012 1564.9869575330833 515.4730293118082Q1573.243440593741 514.3058824917152 1584.1368109146088 513.6790814216654L1584.1368109146088 513.6790814216654Q1584.7636119846588 506.9787941211316 1584.5258598546397 501.6185642807047Q1584.2881077246209 496.25833444027774 1582.818367284504 492.432686529973Q1581.327013014385 488.62865244967 1578.4523736241558 486.532110939503Q1575.577734233927 484.4139555993343 1570.9091469535551 484.4139555993343L1570.9091469535551 484.4139555993343Q1568.7261501233813 484.4139555993343 1566.0028075431644 484.65170772935323Q1563.2794649629477 484.8894598593722 1560.6425777027375 485.97015135945827L1560.6425777027375 485.97015135945827L1553.315489332154 504.6445004809457L1549.273703121832 504.6445004809457Q1547.717507361708 499.9759132005738 1546.550360541615 495.00473230017786Q1545.383213721522 490.0335513997819 1545.080620101498 485.1920534793963L1545.080620101498 485.1920534793963Q1550.981195691968 481.6257715291122 1558.2218287425444 479.5940715089504Q1565.4624617931213 477.58398531879027 1574.324132093827 477.58398531879027L1574.324132093827 477.58398531879027Q1582.256407704459 477.58398531879027 1587.0114503048376 479.83182363896935Q1591.7664929052164 482.0796619591484 1594.2520833554145 485.66755773943413Q1596.7376738056123 489.25545351971994 1597.5157716856745 493.599833350066Q1598.2938695657363 497.9658270104137 1598.2938695657363 502.31020684075975L1598.2938695657363 502.31020684075975Q1598.2938695657363 511.6473814015035 1597.9048206257053 520.2929134021921Q1597.5157716856745 528.9384454028807 1597.5157716856745 536.8707210135126ZM1567.4725479832814 549.4715839045161L1567.4725479832814 549.4715839045161Q1571.3630373835913 549.4715839045161 1574.324132093827 547.9153881443922Q1577.285226804063 546.3591923842682 1579.3169268242248 544.1761955540944Q1581.327013014385 541.9931987239206 1582.5806151544848 539.7453604037414Q1583.812603464583 537.4975220835624 1584.2881077246209 535.9413263234385L1584.2881077246209 535.9413263234385L1584.2881077246209 519.601270842137Q1575.2535267839012 519.601270842137 1569.5042480034435 520.5306655322111Q1563.7549692229852 521.460060222285 1560.4696670627236 523.4917602424468Q1557.2059787324638 525.501846432607 1555.9739904223657 528.5493964628497Q1554.7203882822657 531.5753326630908 1554.7203882822657 535.4658220634007L1554.7203882822657 535.4658220634007Q1554.7203882822657 542.1661093639343 1558.1353734225377 545.8188466342253Q1561.5719723928114 549.4715839045161 1567.4725479832814 549.4715839045161ZM1682.3284406124299 514.6084761117393L1682.3284406124299 548.9960796444784Q1686.5215236327638 549.4715839045161 1690.2607162230618 550.4874339145972Q1693.9999088133595 551.503283924678 1697.2635971436193 552.7352722347762L1697.2635971436193 552.7352722347762L1697.2635971436193 557.2525627051359L1654.619510550223 557.2525627051359L1654.619510550223 552.7352722347762Q1657.7319020704708 551.1790764746522 1661.0172042307322 550.4009785945902Q1664.2808925609925 549.6228807145283 1667.3932840812402 548.9960796444784L1667.3932840812402 548.9960796444784L1667.3932840812402 456.726639367129Q1663.8053883009545 456.09983829707903 1660.6929967807066 455.08398828699814Q1657.5806052604587 454.06813827691724 1654.619510550223 452.8361499668191L1654.619510550223 452.8361499668191L1654.619510550223 448.3188594964593L1668.6252723913383 448.3188594964593Q1674.8500554318343 448.3188594964593 1682.177143802418 447.6920584264094Q1689.4826183429996 447.06525735635944 1696.1829056435333 447.06525735635944L1696.1829056435333 447.06525735635944Q1703.812587634141 447.06525735635944 1711.118062174723 448.7079084364903Q1718.4235367153049 450.35055951662116 1724.1079740057576 454.24104891693105Q1729.7924112962105 458.1315383172409 1733.2938517564892 464.57245965775394Q1736.7952922167683 471.0349948282686 1736.7952922167683 480.6963768390382L1736.7952922167683 480.6963768390382Q1736.7952922167683 489.86064075976816 1733.2073964364824 496.40963125028975Q1729.6411144861984 502.93700791080965 1723.6540835757214 507.15170476114537Q1717.6454388352429 511.3447877814794 1710.0373706746368 513.2900324816343Q1702.4076886840294 515.2352771817893 1694.3025024333838 515.2352771817893L1694.3025024333838 515.2352771817893Q1693.5244045533216 515.2352771817893 1691.9033673031925 515.2352771817893Q1690.2607162230618 515.2352771817893 1688.4019268429138 515.1488218617824Q1686.5215236327638 515.0839803717772 1684.8140310626277 514.9326835617651Q1683.1065384924918 514.7597729217514 1682.3284406124299 514.6084761117393L1682.3284406124299 514.6084761117393ZM1692.9192173132733 455.17044360700504L1692.9192173132733 455.17044360700504Q1689.1800247229758 455.17044360700504 1686.8457310827896 455.32174041701705Q1684.511437442604 455.4730372270291 1682.3284406124299 455.948541487067L1682.3284406124299 455.948541487067L1682.3284406124299 506.3736068810834Q1683.1065384924918 506.67620050110753 1684.576278932609 506.7626558211144Q1686.0676332027278 506.82749731111954 1687.688670452857 506.9787941211316Q1689.3313215329877 507.15170476114537 1690.8875172931116 507.15170476114537Q1692.4437130532356 507.15170476114537 1693.3731077433094 507.15170476114537L1693.3731077433094 507.15170476114537Q1698.8197929037433 507.15170476114537 1703.6396769941275 505.6603504910266Q1708.4811749145128 504.1906100509095 1712.1339121848039 500.92692172064955Q1715.786649455095 497.64161956038794 1717.9696462852685 492.67043865999193Q1720.1526431154425 487.699257759596 1720.1526431154425 480.6963768390382L1720.1526431154425 480.6963768390382Q1720.1526431154425 467.92260330802077 1712.9120100648656 461.5465234575129Q1705.6713770142892 455.17044360700504 1692.9192173132733 455.17044360700504ZM1806.521507802322 536.8707210135126L1806.521507802322 536.8707210135126Q1806.521507802322 540.2857061537845 1806.672804612334 542.7712966039826Q1806.8241014223458 545.2785008841822 1806.9753982323582 548.0666849544043L1806.9753982323582 548.0666849544043L1817.7174717432135 549.6228807145283L1817.7174717432135 552.8865690447882Q1813.8269823429036 554.91826906495 1809.071939742525 556.4744648250739Q1804.338510972148 558.0306605851979 1799.9725173118004 558.8087584652599L1799.9725173118004 558.8087584652599L1796.0820279114905 558.8087584652599Q1794.5258321513666 555.2208626849741 1794.2232385313423 550.9413243446334Q1793.8990310813165 546.6617860042925 1793.7477342713046 541.5393082938845L1793.7477342713046 541.5393082938845L1792.9696363912426 541.5393082938845Q1792.3428353211925 544.6516998141324 1790.5705012610515 547.8289328243854Q1788.7765533709085 551.0277796646401 1785.9019139806796 553.5133701148382Q1783.0056607604488 555.9989605650361 1779.115171360139 557.55515632516Q1775.224681959829 559.111352085284 1770.2535010594333 559.111352085284L1770.2535010594333 559.111352085284Q1760.7650296886775 559.111352085284 1754.7779987782005 553.362073304826Q1748.7693540377218 547.6127945243682 1748.7693540377218 538.2756199636244L1748.7693540377218 538.2756199636244Q1748.7693540377218 531.0998284030529 1751.6656072579526 526.5176964426879Q1754.5402466481814 521.9355644823229 1760.1382286186274 519.2770633921111Q1765.7362105890734 516.6401761319012 1773.9926936497309 515.4730293118082Q1782.2275628803868 514.3058824917152 1793.1209332012545 513.6790814216654L1793.1209332012545 513.6790814216654Q1793.7477342713046 506.9787941211316 1793.5099821412855 501.6185642807047Q1793.2938438412684 496.25833444027774 1791.8024895711496 492.432686529973Q1790.3327491310324 488.62865244967 1787.4581097408036 486.532110939503Q1784.5618565205727 484.4139555993343 1779.8932692402009 484.4139555993343L1779.8932692402009 484.4139555993343Q1777.7318862400289 484.4139555993343 1775.008543659812 484.65170772935323Q1772.285201079595 484.8894598593722 1769.6266999893833 485.97015135945827L1769.6266999893833 485.97015135945827L1762.3212254488012 504.6445004809457L1758.2794392384794 504.6445004809457Q1756.7232434783555 499.9759132005738 1755.5560966582625 495.00473230017786Q1754.3889498381695 490.0335513997819 1754.0647423881437 485.1920534793963L1754.0647423881437 485.1920534793963Q1759.9869318086153 481.6257715291122 1767.2275648591922 479.5940715089504Q1774.446584079767 477.58398531879027 1783.3298682104746 477.58398531879027L1783.3298682104746 477.58398531879027Q1791.2621438211063 477.58398531879027 1796.0171864214853 479.83182363896935Q1800.7506151918624 482.0796619591484 1803.2362056420602 485.66755773943413Q1805.74340992226 489.25545351971994 1806.521507802322 493.599833350066Q1807.299605682384 497.9658270104137 1807.299605682384 502.31020684075975L1807.299605682384 502.31020684075975Q1807.299605682384 511.6473814015035 1806.910556742353 520.2929134021921Q1806.521507802322 528.9384454028807 1806.521507802322 536.8707210135126ZM1776.4782840999292 549.4715839045161L1776.4782840999292 549.4715839045161Q1780.368773500239 549.4715839045161 1783.3298682104746 547.9153881443922Q1786.2909629207106 546.3591923842682 1788.3010491108707 544.1761955540944Q1790.3327491310324 541.9931987239206 1791.5647374411305 539.7453604037414Q1792.8183395812302 537.4975220835624 1793.2938438412684 535.9413263234385L1793.2938438412684 535.9413263234385L1793.2938438412684 519.601270842137Q1784.2592629005485 519.601270842137 1778.5099841200908 520.5306655322111Q1772.7390915096312 521.460060222285 1769.4754031793714 523.4917602424468Q1766.211714849111 525.501846432607 1764.9581127090114 528.5493964628497Q1763.7261243989133 531.5753326630908 1763.7261243989133 535.4658220634007L1763.7261243989133 535.4658220634007Q1763.7261243989133 542.1661093639343 1767.1411095391854 545.8188466342253Q1770.5560946794571 549.4715839045161 1776.4782840999292 549.4715839045161ZM1911.0892173506509 553.362073304826L1911.0892173506509 557.2525627051359L1877.6310085079858 557.2525627051359L1877.6310085079858 553.362073304826Q1881.82409152832 551.1790764746522 1886.8168862587177 549.6228807145283L1886.8168862587177 549.6228807145283L1886.8168862587177 512.7496867315913Q1886.8168862587177 500.92692172064955 1883.380287288444 494.0753376101039Q1879.9653021481718 487.2237534995581 1870.9307212074523 487.2237534995581L1870.9307212074523 487.2237534995581Q1867.0402318071424 487.2237534995581 1863.7117019868774 488.62865244967Q1860.3615583366104 490.0335513997819 1857.7895125664054 492.432686529973Q1855.2174667962004 494.85343549016585 1853.3586774160526 497.87937169040686Q1851.4782742059028 500.92692172064955 1850.397582705817 504.1906100509095L1850.397582705817 504.1906100509095L1850.397582705817 549.6228807145283Q1855.2174667962004 550.5522754046024 1859.7347572665603 553.362073304826L1859.7347572665603 553.362073304826L1859.7347572665603 557.2525627051359L1826.1252516138834 557.2525627051359L1826.1252516138834 553.362073304826Q1830.0157410141933 551.3303732846643 1836.391820864701 549.6228807145283L1836.391820864701 549.6228807145283L1836.391820864701 488.47735563965796L1826.1252516138834 487.2237534995581L1826.1252516138834 483.1819672892362Q1830.1670378242052 481.47447471910016 1835.4624261746271 480.0695757689883Q1840.757814525049 478.6646768188764 1846.5070933055067 477.58398531879027L1846.5070933055067 477.58398531879027L1850.397582705817 477.58398531879027L1850.397582705817 495.00473230017786L1850.548879515829 495.00473230017786Q1853.8125678460888 487.85055456960805 1859.9725093965794 482.7064630291983Q1866.110837117068 477.58398531879027 1874.8212106077622 477.58398531879027L1874.8212106077622 477.58398531879027Q1881.045993648258 477.58398531879027 1885.9523330586485 479.0537257589074Q1890.8586724690394 480.5234661990244 1894.1223607992993 484.26265878932224Q1897.386049129559 488.00185137962006 1899.115155529697 494.3130897401228Q1900.8226480998328 500.6027142706238 1900.8226480998328 510.2640962813933L1900.8226480998328 510.2640962813933L1900.8226480998328 549.6228807145283Q1907.0474311403286 550.7251860446161 1911.0892173506509 553.362073304826L1911.0892173506509 553.362073304826ZM1952.1771081839233 477.58398531879027L1952.1771081839233 477.58398531879027Q1960.5848880545932 477.58398531879027 1966.3341668350513 479.2050225689194Q1972.083445615509 480.84767364905025 1975.9739350158188 484.26265878932224L1975.9739350158188 484.26265878932224Q1985.1598127665507 478.0378757488264 1995.123788397344 475.2496916786044L1995.123788397344 475.2496916786044Q1996.3773905374442 476.95718424874036 1996.917736287487 479.44277469893836Q1997.4580820375304 481.9283651491363 1997.4580820375304 484.1113619793102L1997.4580820375304 484.1113619793102L1995.4263820173683 487.85055456960805L1979.0863265360672 487.85055456960805Q1982.9768159363766 493.4485365400539 1982.9768159363766 502.63441429078557L1982.9768159363766 502.63441429078557Q1982.9768159363766 513.8303782316773 1975.1309956457517 520.8332591522351Q1967.2635615251252 527.8361400727929 1952.1771081839233 527.8361400727929L1952.1771081839233 527.8361400727929Q1949.2160134736878 527.8361400727929 1947.3572240935396 527.6848432627809Q1945.4768208833898 527.5335464527689 1943.1425272432039 527.209339002743L1943.1425272432039 527.209339002743Q1942.3644293631419 528.6142379528549 1941.3485793530608 530.321730522991Q1940.3543431729818 532.0508369231286 1940.3543431729818 533.9096263032767L1940.3543431729818 533.9096263032767Q1940.3543431729818 537.0220178235245 1943.9206251232658 538.8159657136675Q1947.5085209035515 540.6099136038104 1952.8687507439786 541.9931987239206Q1958.2505944144073 543.3980976740324 1964.5402189449082 544.8894519441512Q1970.8514573054108 546.3591923842682 1976.298142465845 548.9312381544732Q1981.7448276262785 551.503283924678 1985.3975648965697 555.6099116250051Q1989.0503021668605 559.738153155334 1989.2015989768724 566.2871436458556L1989.2015989768724 566.2871436458556Q1989.3745096168864 571.8851256163014 1986.6511670366694 576.4024160866613Q1983.9278244564525 580.8980927270193 1979.0863265360672 583.945642757262Q1974.266442445683 586.9715789575032 1967.5013136551443 588.6142300376339Q1960.736184864605 590.235267287763 1952.63099861396 590.235267287763L1952.63099861396 590.235267287763Q1935.68575589261 590.235267287763 1927.0402238919214 584.4859885073051Q1918.3946918912325 578.7367097268473 1918.3946918912325 570.0047224061516L1918.3946918912325 570.0047224061516Q1918.3946918912325 565.8116393858177 1919.7347493513394 562.6992478655698Q1921.0531929814442 559.5868563453218 1923.5387834316425 557.2525627051359Q1926.0243738818403 554.91826906495 1929.7635664721383 553.1243211748072Q1933.5027590624359 551.3303732846643 1938.32264315282 549.7741775245404L1938.32264315282 549.7741775245404Q1934.907658012548 548.2179817644164 1932.6382058623672 545.4946391841995Q1930.3903675421884 542.7712966039826 1930.3903675421884 538.8808072036727L1930.3903675421884 538.8808072036727Q1930.3903675421884 535.3145252533886 1933.4163037424291 531.8130847931097Q1936.4638537726719 528.3116443328308 1939.5762452929198 526.2799443126689L1939.5762452929198 526.2799443126689Q1930.6929611622122 523.945650672483 1925.9595323918352 517.4182740119631Q1921.2044897914566 510.8692835214415 1921.2044897914566 502.63441429078557L1921.2044897914566 502.63441429078557Q1921.2044897914566 497.3390259403638 1923.2361898116183 492.75689397999884Q1925.2462760017788 488.15314818963213 1929.1367654020883 484.73816304936014Q1933.0272548023981 481.3015640790864 1938.7981474128578 479.44277469893836Q1944.547426193316 477.58398531879027 1952.1771081839233 477.58398531879027ZM1975.1958371357568 569.8534255961397L1975.1958371357568 569.8534255961397Q1975.1958371357568 564.8822446957437 1971.8673073154919 561.9211499855078Q1968.5171636652249 558.960055275272 1963.5243689348272 557.1012658951239Q1958.5531880344315 555.2208626849741 1952.8039092539734 553.988874374876Q1947.0330166435137 552.7352722347762 1942.061835743118 551.1790764746522L1942.061835743118 551.1790764746522Q1936.139646322646 554.766972254938 1934.2808569424978 558.722303145253Q1932.4004537323485 562.6992478655698 1932.4004537323485 566.8923308859038L1932.4004537323485 566.8923308859038Q1932.4004537323485 575.1488139465614 1938.32264315282 579.2770554768902Q1944.2448325732917 583.4052970072191 1955.4407965141831 583.4052970072191L1955.4407965141831 583.4052970072191Q1961.1900752946417 583.4052970072191 1965.0157232049464 582.3029916771313Q1968.8197572852491 581.2223001770451 1971.08920943543 579.4283522869023Q1973.337047755609 577.6344043967595 1974.266442445683 575.1488139465614Q1975.1958371357568 572.6632234963633 1975.1958371357568 569.8534255961397ZM1935.2102516325717 502.63441429078557L1935.2102516325717 502.63441429078557Q1935.2102516325717 506.3736068810834 1936.074804832641 509.70213670134854Q1936.917744202708 513.0522803516153 1938.862988902863 515.5378708018134Q1940.808233603018 518.045075082013 1944.0719219332777 519.5148155221301Q1947.3572240935396 520.9845559622472 1952.1771081839233 520.9845559622472L1952.1771081839233 520.9845559622472Q1961.1900752946417 520.9845559622472 1965.0805646949511 515.7107814418271Q1968.971054095261 510.41539309140535 1968.971054095261 502.63441429078557L1968.971054095261 502.63441429078557Q1968.971054095261 494.2266344201159 1965.1670200149583 489.3202950097251Q1961.3629859346552 484.4139555993343 1952.1771081839233 484.4139555993343L1952.1771081839233 484.4139555993343Q1942.6886368131677 484.4139555993343 1938.9494442228697 489.16899819971303Q1935.2102516325717 493.9240408000918 1935.2102516325717 502.63441429078557ZM2062.818303962736 543.8736019340704L2065.00130079291 546.3591923842682Q2063.74769865281 548.9960796444784 2061.1108113926 551.3303732846643Q2058.4523103023885 553.6646669248503 2055.0373251621163 555.3937733249879Q2051.6223400218446 557.1012658951239 2047.5589399815208 558.1171159052049Q2043.5171537711985 559.111352085284 2039.3240707508648 559.111352085284L2039.3240707508648 559.111352085284Q2030.1381930001335 559.111352085284 2023.1353120795757 556.2367126950551Q2016.1324311590174 553.362073304826 2011.463843878646 548.0018434643991Q2006.7952565982737 542.6199997939705 2004.374507638081 535.1632284433765Q2001.97537250789 527.6848432627809 2001.97537250789 518.3476687020371L2001.97537250789 518.3476687020371Q2001.97537250789 498.41971744044986 2011.1612502586217 488.00185137962006Q2020.3255141793516 477.58398531879027 2037.1410739206913 477.58398531879027L2037.1410739206913 477.58398531879027Q2042.5877590811247 477.58398531879027 2047.8831474315466 479.0537257589074Q2053.1785357819685 480.5234661990244 2057.2851634822955 483.96006516929816Q2061.4134050126245 487.37505030957016 2063.985450782829 493.0594876000229Q2066.557496553034 498.7439248904757 2066.557496553034 507.15170476114537L2066.557496553034 507.15170476114537Q2066.557496553034 509.78859202135544 2066.3197444230154 512.5119346015724Q2066.0819922929963 515.2352771817893 2065.4551912229463 518.3476687020371L2065.4551912229463 518.3476687020371L2016.9105290390798 518.3476687020371Q2016.9105290390798 524.8750453625571 2018.5531801192105 530.5594826530098Q2020.1742173693397 536.2439199434625 2023.4379056995995 540.4370029637967Q2026.7232078598613 544.6516998141324 2031.6943887602574 547.0508349443235Q2036.665569660653 549.4715839045161 2043.365856961187 549.4715839045161L2043.365856961187 549.4715839045161Q2048.8125421216205 549.4715839045161 2054.4105240920667 547.9153881443922Q2060.0085060625124 546.3591923842682 2062.818303962736 543.8736019340704L2062.818303962736 543.8736019340704ZM2036.5142728506407 484.4139555993343L2036.5142728506407 484.4139555993343Q2027.6526025499352 484.4139555993343 2022.9840152695633 490.4226003398129Q2018.3154279891914 496.40963125028975 2017.3860332991176 511.4960845914914L2017.3860332991176 511.4960845914914L2051.6223400218446 511.4960845914914Q2051.7736368318565 510.0911856413795 2051.8384783218617 508.7727420112745Q2051.9249336418684 507.4542983811695 2051.9249336418684 506.20069624106964L2051.9249336418684 506.20069624106964Q2051.9249336418684 496.25833444027774 2048.185741051571 490.336145019806Q2044.4465484612729 484.4139555993343 2036.5142728506407 484.4139555993343ZM2119.770746017273 539.5076082737226L2119.770746017273 539.5076082737226Q2119.770746017273 535.1632284433765 2117.0474034370554 532.1156784131338Q2114.3240608568385 529.0897422128928 2110.130977836505 526.4312411226811Q2105.916280986169 523.794353862471 2101.182852215792 521.308763412273Q2096.427809615413 518.823172962075 2092.2347265950793 515.4730293118082Q2088.0200297447436 512.1228856615414 2085.2966871645267 507.7568920011936Q2082.57334458431 503.41251217084755 2082.57334458431 497.0364323203397L2082.57334458431 497.0364323203397Q2082.57334458431 492.821735470004 2084.5185892844647 489.25545351971994Q2086.4638339846197 485.66755773943413 2089.749136144881 483.0955119692293Q2093.0128244751413 480.5234661990244 2097.3572043054874 479.0537257589074Q2101.723197965835 477.58398531879027 2106.694378866231 477.58398531879027L2106.694378866231 477.58398531879027Q2115.1021587369005 477.58398531879027 2120.484002407329 478.5133800088643Q2125.8442322477563 479.44277469893836 2130.815413148152 481.15026726907433L2130.815413148152 481.15026726907433Q2130.210225908104 486.143061999472 2129.345672708035 491.2006982198749Q2128.4811195079665 496.25833444027774 2126.9249237478425 501.53210896069777L2126.9249237478425 501.53210896069777L2123.0344343475326 501.53210896069777L2117.1338587570626 485.66755773943413Q2115.253455546913 484.8894598593722 2112.919161906727 484.65170772935323Q2110.584868266541 484.4139555993343 2108.0992778163427 484.4139555993343L2108.0992778163427 484.4139555993343Q2105.3110937461206 484.4139555993343 2103.192938405952 485.4298056094152Q2101.096396895785 486.4456556194961 2099.626656455668 488.00185137962006Q2098.135302185549 489.558047139744 2097.3572043054874 491.58974715990587Q2096.5791064254254 493.599833350066 2096.5791064254254 495.63153337022777L2096.5791064254254 495.63153337022777Q2096.5791064254254 499.8246163905618 2099.3024490056423 502.8721664208045Q2102.025791585859 505.89810262104555 2106.240488436195 508.4701483912504Q2110.4335714565286 511.04219416145526 2115.1886140569077 513.5277846116533Q2119.9220428272847 516.0133750618512 2124.1367396776204 519.1257665820991Q2128.329822697954 522.238158102347 2131.053165278171 526.3663996326759Q2133.776507858388 530.4946411630046 2133.776507858388 536.2439199434625L2133.776507858388 536.2439199434625Q2133.776507858388 541.5393082938845 2131.528669538209 545.7323913142184Q2129.2592173880284 549.9470881645541 2125.3038864977134 552.8865690447882Q2121.3269417773963 555.8476637550241 2116.1180087469816 557.4903148351549Q2110.909075716567 559.111352085284 2104.9868862960952 559.111352085284L2104.9868862960952 559.111352085284Q2098.308212825563 559.111352085284 2092.6886170251155 557.944205265191Q2087.0906350546697 556.7770584450981 2081.017148824186 554.615675444926L2081.017148824186 554.615675444926Q2081.3413562742116 548.9960796444784 2082.422047774298 543.7871466140634Q2083.524353104385 538.5782135836484 2085.2318456745215 533.7583294932647L2085.2318456745215 533.7583294932647L2089.1223350748314 533.7583294932647L2095.973919185377 550.7251860446161Q2097.681411755513 551.9571743547142 2100.0805468857043 552.1084711647263Q2102.501295845897 552.28138180474 2104.5329958660586 552.28138180474L2104.5329958660586 552.28138180474Q2111.3629661466025 552.28138180474 2115.5776629969387 548.5421892144423Q2119.770746017273 544.8029966241443 2119.770746017273 539.5076082737226ZM2143.58918667917 487.2237534995581L2143.58918667917 483.1819672892362Q2149.48976226964 479.44277469893836 2156.0387527601615 477.8865789388144L2156.0387527601615 477.8865789388144L2156.0387527601615 464.6589149777608Q2158.048838950321 462.9514224076248 2160.772181530538 461.6329787775198Q2163.495524110755 460.29292131741306 2166.1540252009668 459.06093300731493L2166.1540252009668 459.06093300731493L2170.044514601277 459.06093300731493L2170.044514601277 479.44277469893836L2193.387451003136 479.44277469893836L2193.387451003136 487.2237534995581L2170.044514601277 487.2237534995581L2170.044514601277 532.3534305431527Q2170.044514601277 541.6906051038964 2173.005609311513 545.5810945042062Q2175.9450901917467 549.4715839045161 2181.8672796122187 549.4715839045161L2181.8672796122187 549.4715839045161Q2184.6770775124423 549.4715839045161 2188.8701605327765 549.0825349644851Q2193.0632435531106 548.6934860244542 2196.024338263346 547.6127945243682L2196.024338263346 547.6127945243682L2197.126643593434 549.9470881645541Q2195.8730414533343 551.3303732846643 2193.625203133155 552.8865690447882Q2191.3557509829743 554.4427648049121 2188.4811115927455 555.8476637550241Q2185.606472202516 557.2525627051359 2182.169873232243 558.18195739521Q2178.7548880919708 559.111352085284 2175.166992311685 559.111352085284L2175.166992311685 559.111352085284Q2165.829817750941 559.111352085284 2160.945092170552 553.837577564864Q2156.0387527601615 548.5421892144423 2156.0387527601615 536.7194242035005L2156.0387527601615 536.7194242035005L2156.0387527601615 487.2237534995581L2143.58918667917 487.2237534995581ZM2210.9594947945357 526.4312411226811L2210.9594947945357 526.4312411226811Q2210.9594947945357 516.6401761319012 2211.434999054574 507.21654625115053Q2211.9105033146116 497.8145302004017 2211.9105033146116 488.47735563965796L2211.9105033146116 488.47735563965796L2201.622320233792 487.2237534995581L2201.622320233792 483.1819672892362Q2206.6151149641896 481.3015640790864 2211.8240479946044 479.9182789589762Q2217.03298102502 478.5133800088643 2222.0257757554173 477.58398531879027L2222.0257757554173 477.58398531879027L2225.916265155727 477.58398531879027Q2225.916265155727 489.25545351971994 2225.4407608956894 500.7540110806358Q2224.9652566356513 512.2741824715533 2224.9652566356513 523.643057052459L2224.9652566356513 523.643057052459Q2224.9652566356513 529.7165432829427 2225.678513025708 534.5364273733267Q2226.3701555857633 539.3563114637104 2228.1641034759064 542.6199997939705Q2229.958051366049 545.8836881242305 2233.070442886297 547.6776360143733Q2236.1828344065448 549.4715839045161 2241.0027184969285 549.4715839045161L2241.0027184969285 549.4715839045161Q2248.0055994174863 549.4715839045161 2252.7606420178654 544.4139476841133Q2257.4940707882424 539.3563114637104 2260.1525718784537 531.2727390430666L2260.1525718784537 531.2727390430666L2260.1525718784537 488.47735563965796L2250.0372994376485 487.2237534995581L2250.0372994376485 483.1819672892362Q2254.8571835280327 481.3015640790864 2260.0661165584474 479.9182789589762Q2265.275049588862 478.5133800088643 2270.26784431926 477.58398531879027L2270.26784431926 477.58398531879027L2274.1583337195693 477.58398531879027L2274.1583337195693 548.3908924044301L2284.4249029703874 549.6228807145283L2284.4249029703874 552.8865690447882Q2279.9076125000274 554.91826906495 2275.3254805396627 556.4744648250739Q2270.721734749296 558.0306605851979 2265.7505538489 558.8087584652599L2265.7505538489 558.8087584652599L2261.86006444859 558.8087584652599L2260.7577591185022 540.2857061537845L2260.1525718784537 540.2857061537845Q2259.3744739983917 543.5493944840446 2257.4292292982373 546.8995381343113Q2255.4839845980823 550.2496817845781 2252.3715930778344 552.973024364795Q2249.2592015575865 555.696366945012 2245.2822568372694 557.403859515148Q2241.305312116953 559.111352085284 2236.636724836581 559.111352085284L2236.636724836581 559.111352085284Q2230.411941796085 559.111352085284 2225.678513025708 557.6416116451669Q2220.9234704253295 556.1718712050499 2217.6597820950697 552.4326786147521Q2214.39609376481 548.6934860244542 2212.6886011946735 542.3822476639516Q2210.9594947945357 536.0926231334506 2210.9594947945357 526.4312411226811Z " fill="#3c1a5b" transform="matrix(0.3830285672338546,0,0,0.38302856723385453,0,102.65016264396556)"/></g></svg>